<svg viewBox="0 0 512 512" xmlns="http://www.w3.org/2000/svg"><path d="m64 290.058594c2.628906 0 5.210938-1.070313 7.070312-2.929688 1.859376-1.867187 2.929688-4.4375 2.929688-7.070312 0-2.640625-1.070312-5.207032-2.929688-7.078125-1.859374-1.859375-4.441406-2.921875-7.070312-2.921875s-5.210938 1.0625-7.070312 2.921875c-1.859376 1.871093-2.929688 4.4375-2.929688 7.078125 0 2.632812 1.070312 5.203125 2.929688 7.070312 1.859374 1.859375 4.441406 2.929688 7.070312 2.929688zm0 0"/><path d="m64 388.378906c5.523438 0 10-4.480468 10-10v-63.667968c0-5.523438-4.476562-10-10-10s-10 4.476562-10 10v63.667968c0 5.519532 4.476562 10 10 10zm0 0"/><path d="m462 153.070312h-24.175781c-.492188 0-.972657.046876-1.445313.117188l-36.949218-59.402344c-1.828126-2.933594-5.039063-4.714844-8.492188-4.714844h-167.203125c-3.457031 0-6.667969 1.78125-8.492187 4.714844l-36.875 59.285156h-52.367188v-2c0-20.953124-17.046875-38-38-38s-38 17.046876-38 38v2c-27.570312 0-50 22.429688-50 50v258.929688c0 27.570312 22.429688 50 50 50h412c27.570312 0 50-22.429688 50-50v-100.933594c0-5.523437-4.476562-10-10-10s-10 4.476563-10 10v85.945313h-112.519531c38.363281-23.707031 63.984375-66.148438 63.984375-114.464844s-25.621094-90.757813-63.984375-114.464844h112.519531v61.972657c0 5.523437 4.476562 10 10 10s10-4.476563 10-10v-76.984376c0-27.570312-22.429688-50-50-50zm-232.710938-44h156.089844l27.371094 44h-210.828125zm-159.289062 42c0-9.925781 8.074219-18 18-18s18 8.074219 18 18v2h-36zm168.519531 67.011719c-35.691406 22.058594-60.347656 60.324219-63.613281 104.453125h-14.570312c-5.523438 0-10 4.476563-10 10 0 5.523438 4.476562 10 10 10h14.570312c3.253906 44.140625 27.914062 82.417969 63.613281 104.476563h-112.519531v-228.929688zm-132.519531 228.929688h-86v-228.929688h86zm385.574219 20c-2.394531 14.164062-14.742188 24.988281-29.574219 24.988281h-412c-14.832031 0-27.179688-10.824219-29.574219-24.988281zm-68.109375-134.464844c0 63.117187-51.347656 114.464844-114.464844 114.464844s-114.464844-51.347657-114.464844-114.464844c0-63.113281 51.347656-114.464844 114.464844-114.464844s114.464844 51.347657 114.464844 114.464844zm-403.042969-134.464844c2.382813-14.175781 14.734375-25.011719 29.578125-25.011719h412c14.84375 0 27.195312 10.835938 29.578125 25.011719zm0 0"/><path d="m502 308.941406c-2.628906 0-5.210938 1.058594-7.070312 2.917969-1.859376 1.871094-2.929688 4.441406-2.929688 7.070313 0 2.640624 1.070312 5.21875 2.929688 7.082031 1.859374 1.855469 4.441406 2.929687 7.070312 2.929687s5.210938-1.070312 7.070312-2.929687c1.859376-1.863281 2.929688-4.441407 2.929688-7.082031 0-2.628907-1.070312-5.199219-2.929688-7.070313-1.859374-1.859375-4.441406-2.917969-7.070312-2.917969zm0 0"/><path d="m302.527344 395.613281c1.496094.820313 3.152344 1.230469 4.808594 1.230469s3.308593-.410156 4.808593-1.230469c6.117188-3.351562 59.773438-33.800781 59.773438-69.378906 0-23.683594-18.671875-42.953125-41.617188-42.953125-8.203125 0-16.203125 2.535156-22.964843 7.144531-6.761719-4.609375-14.765626-7.144531-22.96875-7.144531-22.945313 0-41.613282 19.269531-41.613282 42.953125 0 35.578125 53.65625 66.027344 59.773438 69.378906zm-18.160156-92.332031c5.921874 0 11.449218 2.496094 15.5625 7.027344 1.898437 2.089844 4.585937 3.28125 7.40625 3.28125 2.816406 0 5.507812-1.191406 7.402343-3.277344 4.117188-4.535156 9.644531-7.03125 15.5625-7.03125 11.921875 0 21.617188 10.296875 21.617188 22.953125 0 16.53125-25.617188 37.613281-44.582031 49.066406-18.972657-11.453125-44.582032-32.535156-44.582032-49.066406 0-12.65625 9.695313-22.953125 21.613282-22.953125zm0 0"/><path d="m309 256.5625c41.898438 0 75.984375 34.085938 75.984375 75.984375 0 5.523437 4.476563 10 10 10s10-4.476563 10-10c0-52.925781-43.058594-95.984375-95.984375-95.984375-5.523438 0-10 4.476562-10 10s4.476562 10 10 10zm0 0"/><path d="m307.449219 55.488281c5.523437 0 10-4.476562 10-10v-35.488281c0-5.523438-4.476563-10-10-10-5.519531 0-10 4.476562-10 10v35.488281c0 5.523438 4.480469 10 10 10zm0 0"/><path d="m262.03125 71.070312c1.953125 1.953126 4.511719 2.929688 7.070312 2.929688 2.558594 0 5.117188-.976562 7.070313-2.929688 3.90625-3.902343 3.90625-10.234374 0-14.140624l-24.644531-24.644532c-3.90625-3.90625-10.238282-3.90625-14.144532 0s-3.90625 10.238282 0 14.140625zm0 0"/><path d="m346.257812 73.347656c2.558594 0 5.117188-.976562 7.070313-2.933594l23.960937-23.972656c3.902344-3.90625 3.902344-10.238281-.003906-14.140625-3.90625-3.902343-10.238281-3.902343-14.144531.003907l-23.957031 23.972656c-3.90625 3.90625-3.902344 10.238281.003906 14.144531 1.953125 1.949219 4.507812 2.925781 7.070312 2.925781zm0 0"/></svg>